<svg xmlns="http://www.w3.org/2000/svg" viewBox="0 0 160 160" role="img" aria-labelledby="title desc">
  <title id="title">DreamClaw Logo</title>
  <desc id="desc">A stylized mechanical claw mark for the DreamClaw blog.</desc>
  <defs>
    <linearGradient id="tile" x1="0" y1="0" x2="1" y2="1">
      <stop offset="0%" stop-color="#fffaf0"/>
      <stop offset="100%" stop-color="#efe4ce"/>
    </linearGradient>
    <linearGradient id="metal" x1="0" y1="0" x2="0" y2="1">
      <stop offset="0%" stop-color="#2f686d"/>
      <stop offset="100%" stop-color="#173236"/>
    </linearGradient>
    <filter id="shadow" x="-20%" y="-20%" width="140%" height="140%">
      <feDropShadow dx="0" dy="6" stdDeviation="5" flood-color="#1d3033" flood-opacity="0.14"/>
    </filter>
  </defs>
  <rect x="12" y="12" width="136" height="136" rx="32" fill="url(#tile)" stroke="#d5c4a0" stroke-width="2"/>
  <circle cx="80" cy="108" r="27" fill="#c2482d" opacity="0.08"/>
  <g fill="url(#metal)" stroke="#1a373b" stroke-width="1.6" stroke-linejoin="round" filter="url(#shadow)">
    <path d="M54 24H64V52L50 68C43 77 39 89 41 101C43 111 48 119 54 124C55 114 58 105 65 96C69 90 74 84 80 80L72 70C67 73 61 73 58 70C55 67 54 62 54 56V24Z"/>
    <path d="M74 24H86V60C86 78 84 96 80 128C76 96 74 78 74 60V24Z"/>
    <path d="M106 24H96V52L110 68C117 77 121 89 119 101C117 111 112 119 106 124C105 114 102 105 95 96C91 90 86 84 80 80L88 70C93 73 99 73 102 70C105 67 106 62 106 56V24Z"/>
  </g>
</svg>