<svg xmlns="http://www.w3.org/2000/svg" viewBox="0 0 160 160" role="img" aria-labelledby="title desc">
  <title id="title">DreamClaw Mark</title>
  <desc id="desc">Single claw emblem for the DreamClaw blog.</desc>
  <defs>
    <linearGradient id="tile" x1="0" y1="0" x2="1" y2="1">
      <stop offset="0%" stop-color="#fffaf0"/>
      <stop offset="100%" stop-color="#efe4ce"/>
    </linearGradient>
    <linearGradient id="stroke" x1="0" y1="0" x2="0" y2="1">
      <stop offset="0%" stop-color="#2b5f64"/>
      <stop offset="100%" stop-color="#18353a"/>
    </linearGradient>
    <filter id="shadow" x="-20%" y="-20%" width="140%" height="140%">
      <feDropShadow dx="0" dy="5" stdDeviation="4" flood-color="#1f3437" flood-opacity="0.15"/>
    </filter>
  </defs>
  <rect x="12" y="12" width="136" height="136" rx="32" fill="url(#tile)" stroke="#d6c5a0" stroke-width="2"/>
  <circle cx="80" cy="112" r="25" fill="#c2482d" opacity="0.08"/>
  <g fill="none" stroke="url(#stroke)" stroke-width="8" stroke-linecap="round" stroke-linejoin="round" filter="url(#shadow)">
    <path d="M64 24v26l-15 18c-11 13-13 31-5 46 7 15 19 26 36 33"/>
    <path d="M96 24v26l15 18c11 13 13 31 5 46-7 15-19 26-36 33"/>
    <path d="M80 24v31"/>
    <path d="M80 56l-13 15c-8 9-11 21-9 33 2 10 8 19 18 27"/>
    <path d="M80 56l13 15c8 9 11 21 9 33-2 10-8 19-18 27"/>
  </g>
</svg>