<svg xmlns="http://www.w3.org/2000/svg" viewBox="0 0 96 96" role="img" aria-labelledby="title desc">
  <title id="title">虾梦实验室 Logo</title>
  <desc id="desc">更清晰的虾形博客标识，包含触须、分节虾身和尾扇。</desc>
  <defs>
    <linearGradient id="bg" x1="0" y1="0" x2="1" y2="1">
      <stop offset="0%" stop-color="#fffaf0" />
      <stop offset="100%" stop-color="#f0e1c2" />
    </linearGradient>
    <linearGradient id="seg1" x1="0" y1="0" x2="1" y2="1">
      <stop offset="0%" stop-color="#ea8b64" />
      <stop offset="100%" stop-color="#c84f32" />
    </linearGradient>
    <linearGradient id="seg2" x1="0" y1="0" x2="1" y2="1">
      <stop offset="0%" stop-color="#e67f59" />
      <stop offset="100%" stop-color="#bf472e" />
    </linearGradient>
    <linearGradient id="seg3" x1="0" y1="0" x2="1" y2="1">
      <stop offset="0%" stop-color="#de714d" />
      <stop offset="100%" stop-color="#b5422d" />
    </linearGradient>
    <linearGradient id="head" x1="0" y1="0" x2="1" y2="1">
      <stop offset="0%" stop-color="#f1a27b" />
      <stop offset="100%" stop-color="#c95034" />
    </linearGradient>
  </defs>
  <rect x="6" y="6" width="84" height="84" rx="24" fill="url(#bg)" stroke="#d4c19c" stroke-width="1.5" />
  <circle cx="51" cy="49" r="30" fill="#fffdf8" opacity="0.58" />

  <g transform="translate(0 1)">
    <path d="M68 16c5 1 10 5 12 11-5-1-9 1-13 5-1-4-2-7-5-10 2-3 4-5 6-6Z" fill="#da6a45" />
    <path d="M74 21c5 2 9 6 10 11-4-1-8 0-11 3 0-4-2-7-4-10 1-2 3-3 5-4Z" fill="#ef9a73" />
    <path d="M69 26c5 0 9 2 12 6-4 0-7 1-10 4-1-3-3-6-5-8 1-1 2-2 3-2Z" fill="#c55234" />

    <ellipse cx="60" cy="33" rx="11" ry="9" transform="rotate(22 60 33)" fill="url(#seg1)" stroke="#b8472f" stroke-width="1.2" />
    <ellipse cx="49" cy="45" rx="11.5" ry="9.5" transform="rotate(17 49 45)" fill="url(#seg2)" stroke="#b8472f" stroke-width="1.2" />
    <ellipse cx="37.5" cy="57.5" rx="12" ry="9.5" transform="rotate(8 37.5 57.5)" fill="url(#seg3)" stroke="#b8472f" stroke-width="1.2" />

    <path d="M17 61c0-8 6-14 14-14 8 0 15 5 18 13-1 9-8 15-17 15-8 0-14-4-16-10l-7 1 5-5c-1-1-1-2-1-4Z" fill="url(#head)" stroke="#b8472f" stroke-width="1.2" />
    <path d="M17 57 8 60 17 63c1-2 1-4 0-6Z" fill="#cb5236" />

    <path d="M23 55C15 48 13 37 18 25" fill="none" stroke="#b8472f" stroke-linecap="round" stroke-width="2.4" />
    <path d="M28 53C28 40 34 29 45 20" fill="none" stroke="#d66844" stroke-linecap="round" stroke-width="2.2" />

    <path d="M55 27c-2 4-3 8-3 13" fill="none" stroke="#f6c0a6" stroke-linecap="round" stroke-width="1.7" opacity="0.9" />
    <path d="M44 39c-2 4-3 8-3 13" fill="none" stroke="#f3b190" stroke-linecap="round" stroke-width="1.7" opacity="0.88" />
    <path d="M33 51c-1 4-1 8 0 12" fill="none" stroke="#f0a885" stroke-linecap="round" stroke-width="1.7" opacity="0.86" />

    <path d="M28 68l-6 5" fill="none" stroke="#b8472f" stroke-linecap="round" stroke-width="2" />
    <path d="M35 66l-5 6" fill="none" stroke="#b8472f" stroke-linecap="round" stroke-width="2" />
    <path d="M43 61l-4 6" fill="none" stroke="#b8472f" stroke-linecap="round" stroke-width="2" />

    <circle cx="31.5" cy="57" r="2.5" fill="#2d2018" />
    <circle cx="32.1" cy="56.2" r="0.7" fill="#fff" />

    <path d="M69 18l1.5 4 4 1.5-4 1.5-1.5 4-1.5-4-4-1.5 4-1.5 1.5-4Z" fill="#caa154" />
  </g>
</svg>
