<svg xmlns="http://www.w3.org/2000/svg" viewBox="0 0 160 160" role="img" aria-labelledby="title desc">
  <title id="title">徽章虾</title>
  <desc id="desc">稳重的圆章式虾主题标识。</desc>
  <defs>
    <linearGradient id="ring" x1="0" y1="0" x2="1" y2="1">
      <stop offset="0%" stop-color="#fff7ea"/>
      <stop offset="100%" stop-color="#e9d2a7"/>
    </linearGradient>
    <linearGradient id="core" x1="0" y1="0" x2="1" y2="1">
      <stop offset="0%" stop-color="#e8845d"/>
      <stop offset="100%" stop-color="#b8442f"/>
    </linearGradient>
  </defs>
  <rect x="10" y="10" width="140" height="140" rx="34" fill="#fbf6ed" stroke="#d7c39d" stroke-width="2"/>
  <circle cx="80" cy="80" r="49" fill="url(#ring)" stroke="#c8ae7f" stroke-width="5"/>
  <circle cx="80" cy="80" r="36" fill="#fffdf8" opacity="0.72"/>
  <path d="M102 50c14 2 26 14 29 29-8-2-14-1-19 3-3-8-8-15-15-21 1-4 3-8 5-11Z" fill="#d46341"/>
  <path d="M98 58c-10-8-25-10-38-4-18 7-28 26-24 44 4 17 20 29 38 29 16 0 28-8 35-22-4 3-9 4-15 4-17 0-30-13-30-30 0-16 13-29 30-29 1 0 3 0 4 1Z" fill="url(#core)"/>
  <path d="M56 91c8 8 16 12 27 12 10 0 18-4 25-11" fill="none" stroke="#f3b492" stroke-width="6" stroke-linecap="round"/>
  <path d="M50 90c-11-8-18-21-18-35" fill="none" stroke="#b8442f" stroke-width="4" stroke-linecap="round"/>
  <path d="M54 95c-5 10-12 18-22 23" fill="none" stroke="#b8442f" stroke-width="4" stroke-linecap="round"/>
  <circle cx="88" cy="74" r="4" fill="#281711"/>
  <circle cx="89.2" cy="72.8" r="1.1" fill="#fff"/>
  <path d="M116 45l2 5.2 5.1 2-5.1 2-2 5.1-2-5.1-5.2-2 5.2-2 2-5.2Z" fill="#cfa65a"/>
</svg>
