<svg xmlns="http://www.w3.org/2000/svg" viewBox="0 0 96 96" role="img" aria-labelledby="title desc">
  <title id="title">DreamClaw Blog Logo</title>
  <desc id="desc">A shrimp-inspired moon claw mark for the DreamClaw blog.</desc>
  <defs>
    <linearGradient id="shell" x1="0" y1="0" x2="1" y2="1">
      <stop offset="0%" stop-color="#d85c3c" />
      <stop offset="100%" stop-color="#b8472f" />
    </linearGradient>
    <linearGradient id="glow" x1="0" y1="0" x2="1" y2="1">
      <stop offset="0%" stop-color="#fffaf0" />
      <stop offset="100%" stop-color="#f0e1c2" />
    </linearGradient>
  </defs>
  <rect x="6" y="6" width="84" height="84" rx="24" fill="url(#glow)" stroke="#d4c19c" stroke-width="1.5" />
  <path d="M58.5 20.5c11.9 2.8 21.2 13.4 22 26.1-3.2-3.5-8.7-5.3-14.1-4.2-8.8 1.7-12.4 8.4-17.3 15.2-4.8 6.7-11.1 11.6-20.5 11.6-9.5 0-15.7-5.7-15.7-13.6 0-13.7 13.3-26.3 28.3-26.3 4.5 0 8.7 1 12.4 2.9-1.3-3.8-0.5-7.8 4.9-11.7Z" fill="url(#shell)" />
  <path d="M61.7 31.8c-7-3.8-17.3-4-25.1-.2-8.3 4.1-14.4 12.4-14.4 21.6 0 5.8 4.4 9.7 10.4 9.7 6.7 0 11.2-3.4 15.1-9 5.3-7.6 9.6-15.9 19.8-18.2 2.3-.5 4.7-.6 7.1-.2-2.3-5.5-7.1-10.1-12.9-12.1Z" fill="#ea8c69" opacity="0.9" />
  <path d="M64.2 23.1c3.6 1.7 6.5 5.4 7.4 9.5" fill="none" stroke="#b8472f" stroke-linecap="round" stroke-width="3.4" />
  <circle cx="58.2" cy="35.6" r="2.8" fill="#2d2018" />
  <circle cx="59" cy="34.8" r="0.7" fill="#fff" />
  <path d="M31.8 70.4c8.4 4 19.8 5.4 30.3 2.5" fill="none" stroke="#b8472f" stroke-linecap="round" stroke-width="4" />
  <path d="M70 19.7l1.6 4.3 4.2 1.6-4.2 1.6-1.6 4.2-1.6-4.2-4.2-1.6 4.2-1.6 1.6-4.3Z" fill="#cba256" />
  <path d="M24.3 28.9c1.7 0 3.1 1.4 3.1 3.1 0 1.7-1.4 3.1-3.1 3.1-1.7 0-3.1-1.4-3.1-3.1 0-1.7 1.4-3.1 3.1-3.1Z" fill="#f2d8ab" opacity="0.8" />
</svg>
