<svg xmlns="http://www.w3.org/2000/svg" viewBox="0 0 160 160" role="img" aria-labelledby="title desc">
  <title id="title">DreamClaw 爪标</title>
  <desc id="desc">为虾梦实验室博客设计的爪形品牌标识。</desc>
  <defs>
    <linearGradient id="tile" x1="0" y1="0" x2="1" y2="1">
      <stop offset="0%" stop-color="#fffaf0"/>
      <stop offset="100%" stop-color="#efe5cf"/>
    </linearGradient>
    <linearGradient id="claw" x1="0" y1="0" x2="0" y2="1">
      <stop offset="0%" stop-color="#2f686d"/>
      <stop offset="100%" stop-color="#1d393d"/>
    </linearGradient>
    <filter id="shadow" x="-20%" y="-20%" width="140%" height="140%">
      <feDropShadow dx="0" dy="4" stdDeviation="4" flood-color="#23383a" flood-opacity="0.16"/>
    </filter>
  </defs>
  <rect x="12" y="12" width="136" height="136" rx="32" fill="url(#tile)" stroke="#d7c8a7" stroke-width="2"/>
  <circle cx="80" cy="102" r="24" fill="#c2482d" opacity="0.08"/>
  <g fill="none" stroke="url(#claw)" stroke-width="7.5" stroke-linecap="round" stroke-linejoin="round" filter="url(#shadow)">
    <path d="M48 28v30l-13 17c-7 9-7 22 0 31 3 4 7 7 12 9-2-8 0-15 6-22 4-5 9-9 16-12"/>
    <path d="M66 28v30l-11 15c-6 8-6 19-2 28 3 5 7 10 13 13-1-9 1-18 7-26 4-6 10-11 18-15"/>
    <path d="M94 28v30l11 15c6 8 6 19 2 28-3 5-7 10-13 13 1-9-1-18-7-26-4-6-10-11-18-15"/>
    <path d="M112 28v30l13 17c7 9 7 22 0 31-3 4-7 7-12 9 2-8 0-15-6-22-4-5-9-9-16-12"/>
  </g>
</svg>